<?xml version="1.0" standalone="no"?>
<!DOCTYPE svg PUBLIC "-//W3C//DTD SVG 20010904//EN"
 "http://www.w3.org/TR/2001/REC-SVG-20010904/DTD/svg10.dtd">
<svg version="1.0" xmlns="http://www.w3.org/2000/svg"
 width="360.000000pt" height="360.000000pt" viewBox="0 0 360.000000 360.000000"
 preserveAspectRatio="xMidYMid meet">

<g transform="translate(0.000000,360.000000) scale(0.100000,-0.100000)"
fill="#00880D" stroke="none">
<path d="M1174 2860 c-298 -60 -549 -252 -683 -524 -62 -126 -81 -207 -126
-526 -20 -140 -45 -314 -55 -387 -33 -216 -25 -305 36 -430 38 -75 142 -180
216 -216 176 -85 369 -73 521 32 87 60 134 126 246 346 l106 210 365 0 365 0
109 -215 c98 -194 115 -221 175 -281 201 -200 510 -200 711 1 99 99 150 217
150 351 0 79 -103 808 -131 932 -68 290 -313 561 -604 666 -159 57 -206 61
-785 60 -466 -1 -535 -3 -616 -19z m1350 -329 c58 -33 82 -120 51 -184 -35
-71 -132 -99 -200 -57 -76 47 -92 151 -32 216 49 54 114 63 181 25z m-1264
-191 l0 -110 110 0 111 0 -3 -102 -3 -103 -107 -3 -108 -3 0 -109 0 -110 -110
0 -110 0 0 110 0 110 -105 0 -105 0 0 105 0 105 105 0 105 0 0 103 c0 57 3
107 7 110 3 4 53 7 110 7 l103 0 0 -110z m978 -96 c43 -28 64 -74 59 -133 -3
-47 -9 -59 -40 -87 -63 -58 -132 -57 -195 1 -35 32 -37 36 -37 98 0 56 4 69
25 92 50 55 130 67 188 29z m582 -4 c117 -83 45 -271 -97 -257 -58 6 -91 30
-115 84 -24 55 -18 99 19 144 52 61 132 73 193 29z m-310 -278 c48 -24 80 -75
80 -127 0 -82 -75 -151 -154 -141 -74 9 -128 68 -128 139 0 112 105 178 202
129z"/>
</g>
</svg>
